<svg width="24" height="25" viewBox="0 0 24 25" fill="none" xmlns="http://www.w3.org/2000/svg">
<path d="M5.3999 2.20117H18.5999C19.6999 2.20117 20.5999 3.10117 20.5999 4.20117V6.40117C20.5999 7.20117 20.0999 8.20117 19.5999 8.70117L15.2999 12.5012C14.6999 13.0012 14.2999 14.0012 14.2999 14.8012V19.1012C14.2999 19.7012 13.8999 20.5012 13.3999 20.8012L11.9999 21.7012C10.6999 22.5012 8.8999 21.6012 8.8999 20.0012V14.7012C8.8999 14.0012 8.4999 13.1012 8.0999 12.6012L4.2999 8.60117C3.7999 8.10117 3.3999 7.20117 3.3999 6.60117V4.30117C3.3999 3.10117 4.2999 2.20117 5.3999 2.20117Z" stroke="black" stroke-width="1.5" stroke-miterlimit="10" stroke-linecap="round" stroke-linejoin="round"/>
</svg>
