<svg width="24" height="24" viewBox="0 0 24 24" fill="none" xmlns="http://www.w3.org/2000/svg">
<path d="M13.4101 20.7898L12.0001 21.6998C10.6901 22.5098 8.87006 21.5998 8.87006 19.9798V14.6298C8.87006 13.9198 8.47006 13.0098 8.06006 12.5098L4.22006 8.46977C3.71006 7.95977 3.31006 7.05977 3.31006 6.44977V4.12977C3.31006 2.91977 4.22006 2.00977 5.33006 2.00977H18.6701C19.7801 2.00977 20.6901 2.91977 20.6901 4.02977V6.24977C20.6901 7.05977 20.1801 8.06977 19.6801 8.56977" stroke="black" stroke-width="1.5" stroke-miterlimit="10" stroke-linecap="round" stroke-linejoin="round"/>
<path d="M20 14.2993C20 16.5073 18.208 18.2993 16 18.2993C13.792 18.2993 12.444 16.0753 12.444 16.0753M12.444 16.0753H14.252M12.444 16.0753L12.444 18.0753M12 14.2993C12 12.0913 13.776 10.2993 16 10.2993C18.668 10.2993 20 12.5233 20 12.5233M20 12.5233V10.5233M20 12.5233L18.224 12.5233" stroke="black" stroke-opacity="0.58" stroke-linecap="round" stroke-linejoin="round"/>
</svg>
